<svg xmlns="http://www.w3.org/2000/svg" viewBox="0 0 252.5 255.23"><title>資產 2</title><g id="圖層_2" data-name="圖層 2"><g id="圖層_1-2" data-name="圖層 1"><polygon points="0 184.24 0 255.23 91 255.23 91 148.75 0 184.24"/><polygon points="0 176.09 0 0 91 0 91 140.6 0 176.09"/><polygon points="252.5 70.99 217.75 105.79 217.75 0 252.5 0 252.5 70.99"/><polygon points="252.5 78.45 252.5 255.23 217.75 255.23 217.75 113.26 252.5 78.45"/><polygon points="210.48 132.46 179.77 105.79 179.77 0 210.48 0 210.48 132.46"/><polygon points="210.48 140.6 210.48 255.23 179.77 255.23 179.77 113.26 210.48 140.6"/><polygon points="98.38 113.26 98.38 255.23 172.56 255.23 172.56 148.75 98.38 113.26"/><polygon points="172.56 140.6 172.56 0 98.38 0 98.38 105.79 172.56 140.6"/></g></g></svg>