<svg xmlns="http://www.w3.org/2000/svg" viewBox="0 0 35 35.38"><title>資產 3</title><g id="圖層_2" data-name="圖層 2"><g id="圖層_1-2" data-name="圖層 1"><polygon points="0 25.54 0 35.38 12.61 35.38 12.61 20.62 0 25.54"/><polygon points="0 24.41 0 0 12.61 0 12.61 19.49 0 24.41"/><polygon points="35 9.84 30.18 14.66 30.18 0 35 0 35 9.84"/><polygon points="35 10.87 35 35.38 30.18 35.38 30.18 15.7 35 10.87"/><polygon points="29.18 18.36 24.92 14.66 24.92 0 29.18 0 29.18 18.36"/><polygon points="29.18 19.49 29.18 35.38 24.92 35.38 24.92 15.7 29.18 19.49"/><polygon points="13.64 15.7 13.64 35.38 23.92 35.38 23.92 20.62 13.64 15.7"/><polygon points="23.92 19.49 23.92 0 13.64 0 13.64 14.66 23.92 19.49"/></g></g></svg>