<svg xmlns="http://www.w3.org/2000/svg" viewBox="0 0 192 194.08"><title>資產 1</title><g id="圖層_2" data-name="圖層 2"><g id="圖層_1-2" data-name="圖層 1"><g id="圖層_1-2-2" data-name="圖層 1-2"><polygon points="0 140.09 0 194.08 69.2 194.08 69.2 113.11 0 140.09"/><polygon points="0 133.9 0 0 69.2 0 69.2 106.91 0 133.9"/><polygon points="192 53.98 165.58 80.44 165.58 0 192 0 192 53.98"/><polygon points="192 59.65 192 194.08 165.58 194.08 165.58 86.12 192 59.65"/><polygon points="160.05 100.72 136.7 80.44 136.7 0 160.05 0 160.05 100.72"/><polygon points="160.05 106.91 160.05 194.08 136.7 194.08 136.7 86.12 160.05 106.91"/><polygon points="74.81 86.12 74.81 194.08 131.21 194.08 131.21 113.11 74.81 86.12"/><polygon points="131.21 106.91 131.21 0 74.81 0 74.81 80.44 131.21 106.91"/></g></g></g></svg>